<svg width="190" height="52" viewBox="0 0 190 52" fill="none" xmlns="http://www.w3.org/2000/svg">
<g filter="url(#filter0_f_5_289)">
<ellipse cx="62.5" cy="26" rx="85.5" ry="42" fill="url(#paint0_linear_5_289)"/>
</g>
<g filter="url(#filter1_d_5_289)">
<g clip-path="url(#clip0_5_289)">
<rect width="100" height="61" rx="4.5749" transform="matrix(0.913545 -0.406737 0.659347 0.751838 -2 8)" fill="url(#paint1_linear_5_289)"/>
<g filter="url(#filter2_f_5_289)">
<path d="M70.775 40.0833C45.4165 53.254 19.0648 55.135 15.2693 54.6788L31.5121 73.2L154.539 18.4248L130.368 -9.13654C127.783 3.97125 96.1336 26.9125 70.775 40.0833Z" fill="url(#paint2_linear_5_289)"/>
</g>
<path d="M15.0299 14.9202C14.6251 15.1004 14.2148 15.2011 13.7987 15.2221C13.3827 15.2432 12.9889 15.1841 12.6173 15.0446C12.2471 14.8987 11.9289 14.674 11.6627 14.3704L11.5629 14.2566L12.5465 13.8186L12.6242 13.9072C12.8312 14.1433 13.0975 14.2885 13.423 14.3429C13.7449 14.3931 14.0697 14.3452 14.3976 14.1992C14.7306 14.051 14.9294 13.8716 14.9941 13.661C15.0639 13.4482 15.0119 13.2427 14.8381 13.0446L14.7827 12.9813C14.6644 12.8464 14.5272 12.755 14.3713 12.7072C14.2154 12.6594 14.0516 12.6473 13.88 12.6709C13.7047 12.6903 13.53 12.7388 13.3558 12.8164L12.28 13.2954L11.5035 12.41L12.5746 10.8778L12.4859 10.7766L9.76552 11.9878L9.13323 11.2668L12.9448 9.56978L13.8877 10.6449L12.8874 12.0752L12.9762 12.1764L13.2605 12.0498C13.5013 11.9426 13.7695 11.8788 14.0652 11.8586C14.366 11.8361 14.6646 11.876 14.9611 11.9785C15.2539 12.0768 15.5167 12.2588 15.7497 12.5244L15.8162 12.6003C16.0677 12.887 16.2031 13.1755 16.2227 13.4658C16.2385 13.7519 16.1445 14.0224 15.9406 14.2773C15.7382 14.5257 15.4346 14.74 15.0299 14.9202ZM21.4712 11.9293L20.6836 11.0312L18.04 12.2082L17.2192 11.2722L16.8049 7.85117L18.5723 7.06424L21.0349 9.87228L21.9263 9.47539L22.5586 10.1964L21.6672 10.5933L22.4548 11.4913L21.4712 11.9293ZM18.3453 11.0698L20.0513 10.3102L18.0435 8.02079L17.9052 8.08237L18.2566 10.9686L18.3453 11.0698ZM25.612 10.2088C25.1919 10.3958 24.7746 10.4966 24.3599 10.5112C23.9504 10.5235 23.5657 10.4544 23.2058 10.3039C22.8459 10.1535 22.5366 9.93066 22.2777 9.63552L22.2223 9.57228L23.2213 9.12749L23.2712 9.18441C23.4561 9.39522 23.6996 9.53889 24.0018 9.6154C24.3054 9.68542 24.6262 9.64516 24.9644 9.49461C25.3025 9.34407 25.4965 9.1551 25.5464 8.92769C25.5977 8.69379 25.518 8.45668 25.3072 8.21635L25.2518 8.15311C25.0447 7.917 24.7879 7.77043 24.4815 7.71341C24.1801 7.65411 23.8937 7.6849 23.6222 7.80579C23.4736 7.87194 23.3655 7.94355 23.2977 8.02062C23.2299 8.09768 23.1875 8.1752 23.1704 8.25317C23.1533 8.33113 23.1464 8.40454 23.1498 8.47338L21.9587 9.0037L19.7845 6.52454L23.4578 4.8891L24.1012 5.62273L21.4115 6.82023L22.36 7.9017L22.4983 7.84011C22.5015 7.76249 22.5244 7.679 22.5671 7.58962C22.6098 7.50025 22.6856 7.40791 22.7943 7.31259C22.9031 7.21728 23.0522 7.12742 23.2418 7.04303C23.5594 6.90161 23.8969 6.82755 24.2543 6.82084C24.6118 6.81413 24.9616 6.88408 25.3039 7.03068C25.6476 7.17079 25.9562 7.39684 26.2298 7.70884L26.2964 7.78473C26.57 8.09674 26.7247 8.40307 26.7604 8.70374C26.8013 9.00213 26.726 9.28186 26.5347 9.54292C26.3397 9.79977 26.0321 10.0217 25.612 10.2088ZM30.3496 7.97631L29.5621 7.07824L26.9185 8.25522L26.0977 7.31921L25.6833 3.89822L27.4508 3.11129L29.9134 5.91932L30.8048 5.52243L31.4371 6.24341L30.5457 6.6403L31.3333 7.53836L30.3496 7.97631ZM27.2238 7.11682L28.9298 6.35726L26.922 4.06783L26.7837 4.12942L27.135 7.01563L27.2238 7.11682ZM36.2957 5.45208C35.6604 5.73492 35.0249 5.81852 34.3893 5.70288C33.7499 5.58303 33.1732 5.23008 32.6593 4.64402L31.6831 3.53092C31.1839 2.96173 30.9971 2.44403 31.1225 1.97782C31.2442 1.50739 31.6226 1.13076 32.2579 0.847919C32.8983 0.562799 33.5393 0.485522 34.1809 0.616086C34.824 0.740153 35.3951 1.08678 35.8943 1.65598L36.8705 2.76907C37.3844 3.35513 37.5769 3.87916 37.4478 4.34115C37.3201 4.79665 36.9361 5.16696 36.2957 5.45208ZM35.6634 4.7311C36.0476 4.56003 36.2536 4.34814 36.2813 4.09544C36.3141 3.84046 36.19 3.55275 35.909 3.23231L34.8774 2.05598C34.5927 1.73132 34.2758 1.5324 33.9266 1.4592C33.5789 1.37951 33.2334 1.41608 32.8902 1.5689C32.5367 1.72629 32.3359 1.93589 32.2877 2.19771C32.2446 2.45726 32.3598 2.74303 32.6335 3.05503L33.6651 4.23137C33.9572 4.56446 34.2694 4.77427 34.6018 4.8608C34.9355 4.94084 35.2894 4.89761 35.6634 4.7311ZM40.9713 3.37035C40.336 3.65319 39.7006 3.73679 39.0649 3.62116C38.4255 3.50131 37.8489 3.14835 37.3349 2.56229L36.3587 1.4492C35.8596 0.880001 35.6727 0.362298 35.7981 -0.103912C35.9198 -0.574338 36.2983 -0.950971 36.9335 -1.23381C37.5739 -1.51893 38.2149 -1.59621 38.8566 -1.46564C39.4996 -1.34158 40.0708 -0.994944 40.5699 -0.425749L41.5461 0.687345C42.0601 1.27341 42.2525 1.79743 42.1234 2.25943C41.9957 2.71492 41.6117 3.08523 40.9713 3.37035ZM40.339 2.64937C40.7232 2.4783 40.9292 2.26641 40.9569 2.01371C40.9898 1.75873 40.8657 1.47102 40.5846 1.15059L39.553 -0.0257516C39.2683 -0.350404 38.9514 -0.549328 38.6023 -0.622524C38.2546 -0.702217 37.9091 -0.665652 37.5658 -0.512828C37.2123 -0.355442 37.0115 -0.145837 36.9633 0.115987C36.9202 0.37553 37.0355 0.661303 37.3091 0.973307L38.3407 2.14964C38.6328 2.48273 38.9451 2.69254 39.2774 2.77908C39.6112 2.85911 39.965 2.81588 40.339 2.64937ZM45.6469 1.28862C45.0117 1.57146 44.3762 1.65506 43.7405 1.53943C43.1012 1.41958 42.5245 1.06662 42.0105 0.480563L41.0344 -0.632531C40.5352 -1.20173 40.3483 -1.71943 40.4737 -2.18564C40.5954 -2.65607 40.9739 -3.0327 41.6092 -3.31554C42.2496 -3.60066 42.8906 -3.67793 43.5322 -3.54737C44.1753 -3.4233 44.7464 -3.07667 45.2456 -2.50748L46.2217 -1.39438C46.7357 -0.808321 46.9281 -0.284294 46.799 0.1777C46.6714 0.633196 46.2873 1.0035 45.6469 1.28862ZM45.0146 0.567643C45.3989 0.396571 45.6049 0.184685 45.6326 -0.0680152C45.6654 -0.322996 45.5413 -0.610705 45.2603 -0.931141L44.2287 -2.10748C43.9439 -2.43213 43.627 -2.63105 43.2779 -2.70425C42.9302 -2.78394 42.5847 -2.74738 42.2415 -2.59455C41.888 -2.43717 41.6871 -2.22756 41.6389 -1.96574C41.5958 -1.7062 41.7111 -1.42042 41.9847 -1.10842L43.0164 0.0679172C43.3085 0.401002 43.6207 0.610813 43.953 0.697349C44.2868 0.777388 44.6407 0.734152 45.0146 0.567643ZM48.9255 -1.50775L48.3598 -2.15284L49.0668 -2.46761L48.7673 -2.80913L48.0603 -2.49435L47.4945 -3.13944L48.2015 -3.45421L46.5154 -5.37683L48.7594 -6.37589C49.0924 -6.52415 49.4287 -6.60357 49.7685 -6.61415C50.1134 -6.627 50.4408 -6.5705 50.7506 -6.44464C51.0568 -6.32299 51.3208 -6.13567 51.5426 -5.8827L51.6203 -5.79416C51.8421 -5.54118 51.9601 -5.28886 51.9742 -5.0372C51.9935 -4.78782 51.9194 -4.55551 51.752 -4.34027C51.5809 -4.12925 51.3339 -3.95188 51.0112 -3.80818L49.7816 -3.26076L50.0811 -2.91924L51.7871 -3.6788L52.3529 -3.03371L50.6469 -2.27415L51.4123 -1.40138L50.3979 -0.949754L49.6325 -1.82252L48.9255 -1.50775ZM49.2159 -3.90584L50.3456 -4.40879C50.5761 -4.51144 50.7206 -4.64318 50.779 -4.80402C50.8337 -4.96908 50.7871 -5.13593 50.6392 -5.30458L50.5837 -5.36783C50.4321 -5.54069 50.2421 -5.64368 50.0136 -5.67679C49.7902 -5.71217 49.5607 -5.67741 49.325 -5.57248L48.1954 -5.06953L49.2159 -3.90584Z" fill="white"/>
<path d="M34.9915 55.1352L25.7651 44.6146L35.8809 40.1107L45.1073 50.6314L42.4037 51.8351L34.8055 43.171L30.0968 45.2675L37.695 53.9315L34.9915 55.1352ZM54.5916 39.0739C55.3066 39.8893 55.8317 40.6867 56.1668 41.4663C56.5053 42.2307 56.6349 42.9652 56.5557 43.6698C56.4885 44.369 56.1789 45.019 55.6271 45.6198C55.0872 46.2153 54.298 46.7443 53.2596 47.2066C52.2211 47.669 51.202 47.9451 50.2022 48.0352C49.2057 48.11 48.25 48.0233 47.3352 47.775C46.4237 47.5116 45.5497 47.1016 44.7133 46.5453C43.8887 45.9836 43.119 45.2951 42.4039 44.4797C41.4477 43.3894 40.8312 42.3458 40.5545 41.349C40.2897 40.3468 40.4111 39.4255 40.9186 38.5848C41.4295 37.7291 42.3832 36.9903 43.7797 36.3686C45.1643 35.7521 46.5023 35.4705 47.7938 35.5238C49.0766 35.5673 50.2904 35.9011 51.4352 36.5251C52.5832 37.1339 53.6353 37.9836 54.5916 39.0739ZM45.2636 43.227C45.9097 43.9638 46.5787 44.5469 47.2707 44.9764C47.9627 45.4058 48.6723 45.6567 49.3996 45.729C50.1269 45.8013 50.8665 45.6701 51.6184 45.3353C52.3943 44.9899 52.89 44.5711 53.1057 44.079C53.3333 43.5815 53.322 43.0197 53.0716 42.3936C52.8332 41.7622 52.3909 41.0781 51.7448 40.3414C50.7714 39.2314 49.7583 38.4736 48.7057 38.0681C47.653 37.6626 46.5537 37.715 45.4079 38.2252C44.644 38.5653 44.1482 38.984 43.9206 39.4815C43.693 39.9789 43.6984 40.5434 43.9368 41.1748C44.1752 41.8062 44.6175 42.4903 45.2636 43.227ZM59.9978 29.3732L61.6131 31.215L56.2419 33.6064L63.853 42.2852L61.1495 43.4889L51.9231 32.9683L59.9978 29.3732ZM77.0345 36.4164L73.9068 34.326L69.2517 36.3986L70.5175 39.318L67.5991 40.6173L62.8458 28.0437L66.158 26.569L79.9529 35.1171L77.0345 36.4164ZM68.545 30.7102C68.3389 30.5698 68.0761 30.3931 67.7566 30.1802C67.4372 29.9674 67.1134 29.7495 66.7853 29.5268C66.4572 29.3041 66.1772 29.1078 65.9452 28.9379C66.0578 29.161 66.1896 29.4437 66.3407 29.7863C66.495 30.1137 66.6407 30.4312 66.7778 30.739C66.9183 31.0316 67.012 31.2425 67.059 31.3718L68.291 34.2243L71.6211 32.7417L68.545 30.7102ZM96.9336 27.5568L80.8558 34.7151L71.6294 24.1945L74.3329 22.9908L81.9311 31.6548L85.9058 29.8852L78.3076 21.2211L81.029 20.0095L88.6272 28.6735L92.6019 26.9039L85.0037 18.2398L87.7072 17.0362L96.9336 27.5568ZM106.801 23.1636L99.4424 26.4398L90.216 15.9192L97.5745 12.6429L99.1768 14.4701L94.5218 16.5426L96.5506 18.856L100.883 16.9269L102.486 18.754L98.1529 20.6831L100.531 23.3943L105.186 21.3217L106.801 23.1636ZM119.219 17.6349L116.515 18.8386L112.535 14.3002L107.468 16.5561L111.448 21.0945L108.745 22.2981L99.5183 11.7775L102.222 10.5738L105.84 14.6996L110.907 12.4437L107.289 8.31791L109.992 7.11423L119.219 17.6349ZM128.694 6.08118C129.41 6.89651 129.935 7.69396 130.27 8.47353C130.608 9.23797 130.738 9.97246 130.659 10.677C130.591 11.3762 130.282 12.0262 129.73 12.6271C129.19 13.2226 128.401 13.7515 127.362 14.2139C126.324 14.6762 125.305 14.9524 124.305 15.0424C123.309 15.1173 122.353 15.0306 121.438 14.7823C120.527 14.5188 119.653 14.1089 118.816 13.5525C117.992 12.9908 117.222 12.3023 116.507 11.487C115.551 10.3966 114.934 9.35301 114.657 8.35619C114.393 7.35407 114.514 6.43269 115.022 5.59208C115.532 4.73633 116.486 3.99757 117.883 3.37581C119.267 2.75935 120.605 2.47778 121.897 2.53108C123.18 2.57455 124.393 2.90829 125.538 3.53231C126.686 4.14118 127.738 4.99081 128.694 6.08118ZM119.367 10.2343C120.013 10.971 120.682 11.5541 121.374 11.9836C122.066 12.4131 122.775 12.664 123.503 12.7363C124.23 12.8086 124.969 12.6773 125.721 12.3425C126.497 11.9971 126.993 11.5783 127.209 11.0862C127.436 10.5888 127.425 10.027 127.175 9.40087C126.936 8.76945 126.494 8.08537 125.848 7.34863C124.874 6.23861 123.861 5.48085 122.809 5.07537C121.756 4.66988 120.657 4.72222 119.511 5.23239C118.747 5.5725 118.251 5.99128 118.024 6.48872C117.796 6.98617 117.801 7.5506 118.04 8.18202C118.278 8.81345 118.72 9.49753 119.367 10.2343Z" fill="white"/>
</g>
<rect x="0.224869" y="0.0493376" width="99.7141" height="60.7141" rx="4.43193" transform="matrix(0.913545 -0.406737 0.659347 0.751838 -2.01309 8.10371)" stroke="url(#paint3_radial_5_289)" stroke-width="0.285931"/>
<rect x="0.224869" y="0.0493376" width="99.7141" height="60.7141" rx="4.43193" transform="matrix(0.913545 -0.406737 0.659347 0.751838 -2.01309 8.10371)" stroke="url(#paint4_radial_5_289)" stroke-width="0.285931"/>
<rect x="0.224869" y="0.0493376" width="99.7141" height="60.7141" rx="4.43193" transform="matrix(0.913545 -0.406737 0.659347 0.751838 -2.01309 8.10371)" stroke="url(#paint5_radial_5_289)" stroke-width="0.285931"/>
</g>
<g filter="url(#filter3_f_5_289)">
<ellipse cx="29.5" cy="-2.5" rx="72.5" ry="20.5" fill="white" fill-opacity="0.4"/>
</g>
<defs>
<filter id="filter0_f_5_289" x="-64.3023" y="-57.3023" width="253.605" height="166.605" filterUnits="userSpaceOnUse" color-interpolation-filters="sRGB">
<feFlood flood-opacity="0" result="BackgroundImageFix"/>
<feBlend mode="normal" in="SourceGraphic" in2="BackgroundImageFix" result="shape"/>
<feGaussianBlur stdDeviation="20.6512" result="effect1_foregroundBlur_5_289"/>
</filter>
<filter id="filter1_d_5_289" x="-46.3893" y="-61.7003" width="211.575" height="166.536" filterUnits="userSpaceOnUse" color-interpolation-filters="sRGB">
<feFlood flood-opacity="0" result="BackgroundImageFix"/>
<feColorMatrix in="SourceAlpha" type="matrix" values="0 0 0 0 0 0 0 0 0 0 0 0 0 0 0 0 0 0 127 0" result="hardAlpha"/>
<feOffset dx="-4.38933" dy="10.9733"/>
<feGaussianBlur stdDeviation="20"/>
<feComposite in2="hardAlpha" operator="out"/>
<feColorMatrix type="matrix" values="0 0 0 0 0.737549 0 0 0 0 0.651872 0 0 0 0 0.223485 0 0 0 1 0"/>
<feBlend mode="normal" in2="BackgroundImageFix" result="effect1_dropShadow_5_289"/>
<feBlend mode="normal" in="SourceGraphic" in2="effect1_dropShadow_5_289" result="shape"/>
</filter>
<filter id="filter2_f_5_289" x="-5.3175" y="-29.7236" width="180.444" height="123.511" filterUnits="userSpaceOnUse" color-interpolation-filters="sRGB">
<feFlood flood-opacity="0" result="BackgroundImageFix"/>
<feBlend mode="normal" in="SourceGraphic" in2="BackgroundImageFix" result="shape"/>
<feGaussianBlur stdDeviation="10.2935" result="effect1_foregroundBlur_5_289"/>
</filter>
<filter id="filter3_f_5_289" x="-90.0387" y="-70.0387" width="239.077" height="135.077" filterUnits="userSpaceOnUse" color-interpolation-filters="sRGB">
<feFlood flood-opacity="0" result="BackgroundImageFix"/>
<feBlend mode="normal" in="SourceGraphic" in2="BackgroundImageFix" result="shape"/>
<feGaussianBlur stdDeviation="23.5194" result="effect1_foregroundBlur_5_289"/>
</filter>
<linearGradient id="paint0_linear_5_289" x1="62.5" y1="-16" x2="62.5" y2="68" gradientUnits="userSpaceOnUse">
<stop stop-color="#E0B330"/>
<stop offset="0.511012" stop-color="#FBEE88"/>
<stop offset="1" stop-color="#E0B330"/>
</linearGradient>
<linearGradient id="paint1_linear_5_289" x1="50" y1="0" x2="50" y2="61" gradientUnits="userSpaceOnUse">
<stop stop-color="#FBEE88"/>
<stop offset="1" stop-color="#E0B330"/>
</linearGradient>
<linearGradient id="paint2_linear_5_289" x1="68.8548" y1="18.251" x2="83.0946" y2="50.234" gradientUnits="userSpaceOnUse">
<stop stop-color="#E0B330"/>
<stop offset="0.511012" stop-color="#FBEE88"/>
<stop offset="1" stop-color="#E0B330"/>
</linearGradient>
<radialGradient id="paint3_radial_5_289" cx="0" cy="0" r="1" gradientUnits="userSpaceOnUse" gradientTransform="translate(121.296 23.0523) rotate(174.417) scale(164.05 41.6263)">
<stop stop-color="white"/>
<stop offset="1" stop-color="white" stop-opacity="0"/>
</radialGradient>
<radialGradient id="paint4_radial_5_289" cx="0" cy="0" r="1" gradientUnits="userSpaceOnUse" gradientTransform="translate(-8.95062 -35.4651) rotate(30.6728) scale(96.1709 58.1385)">
<stop stop-color="white"/>
<stop offset="1" stop-color="white" stop-opacity="0"/>
</radialGradient>
<radialGradient id="paint5_radial_5_289" cx="0" cy="0" r="1" gradientUnits="userSpaceOnUse" gradientTransform="translate(-40.1235 82.3973) rotate(-5.34645) scale(123.066 31.0924)">
<stop stop-color="white"/>
<stop offset="1" stop-color="white" stop-opacity="0"/>
</radialGradient>
<clipPath id="clip0_5_289">
<rect width="100" height="61" rx="4.5749" transform="matrix(0.913545 -0.406737 0.659347 0.751838 -2 8)" fill="white"/>
</clipPath>
</defs>
</svg>
